<svg xmlns="http://www.w3.org/2000/svg" xmlns:xlink="http://www.w3.org/1999/xlink" width="19" height="25" viewBox="0 0 19 25"><defs><path id="ccara" d="M1538.004 72.484v15.535c0 1.074-.913 1.98-1.994 1.98h-15.016c-1.08 0-1.993-.906-1.993-1.98V72.458c0-.397.325-.72.725-.72h3.34v-1.286c0-3.007 2.438-5.453 5.436-5.453 2.998 0 5.437 2.446 5.437 5.453v1.286h3.34c.393 0 .725.342.725.746zm-14.938 5.067v-4.347h-2.59v14.841c0 .294.223.514.518.514h15.016c.148 0 .29-.06.391-.168a.44.44 0 0 0 .127-.33V73.204h-2.615v4.347c0 .397-.325.72-.725.72a.723.723 0 0 1-.725-.72v-4.347h-7.948v4.347c0 .397-.325.72-.725.72a.723.723 0 0 1-.724-.72zm1.475-7.125v1.286h7.922v-1.286c0-2.212-1.777-4.013-3.96-4.013-2.185 0-3.962 1.8-3.962 4.013z"/></defs><g><g transform="translate(-1519 -65)"><use fill="#636363" xlink:href="#ccara"/></g></g></svg>