<svg xmlns="http://www.w3.org/2000/svg" xmlns:xlink="http://www.w3.org/1999/xlink" width="28" height="28" viewBox="0 0 28 28"><defs><path id="fywca" d="M866.606 825.27a.392.392 0 0 0 0-.537l-1.108-1.19a1.832 1.832 0 0 1-.365-.567 1.83 1.83 0 0 1 1.055-2.39l1.536-.583a.396.396 0 0 0 .239-.486l-.472-1.561a1.806 1.806 0 0 1-.077-.652c.066-1.015.96-1.785 1.997-1.72l1.648.115c.21.014.398-.13.43-.335l.254-1.6c.036-.221.112-.435.226-.63.516-.883 1.665-1.19 2.567-.685l1.433.802a.413.413 0 0 0 .537-.118l.935-1.333c.13-.186.294-.346.483-.473a1.907 1.907 0 0 1 2.616.473l.938 1.336c.12.17.353.22.537.118l1.42-.805c.2-.112.419-.187.646-.221 1.026-.156 1.988.532 2.148 1.537l.253 1.599c.035.203.22.348.43.335l1.65-.116c.228-.015.458.01.678.076.994.295 1.555 1.324 1.253 2.297l-.472 1.561a.396.396 0 0 0 .239.47l1.536.598c.216.083.414.204.585.357.766.687.819 1.852.117 2.602l-1.12 1.19a.392.392 0 0 0 0 .536l1.108 1.175c.156.165.28.357.364.567a1.829 1.829 0 0 1-1.054 2.39l-1.536.599a.395.395 0 0 0-.239.484l.472 1.562c.064.208.09.425.077.642-.06 1.015-.95 1.79-1.988 1.73l-1.649-.115a.405.405 0 0 0-.43.335l-.254 1.599a1.817 1.817 0 0 1-.225.631c-.516.883-1.665 1.19-2.567.685l-1.434-.803a.415.415 0 0 0-.536.119l-.935 1.334a1.907 1.907 0 0 1-3.1 0l-.934-1.334a.413.413 0 0 0-.537-.119l-1.433.803c-.2.112-.418.186-.645.22-1.027.157-1.988-.531-2.148-1.536l-.253-1.6a.405.405 0 0 0-.43-.334l-1.65.116a1.928 1.928 0 0 1-.678-.076c-.994-.295-1.555-1.324-1.253-2.297l.472-1.562a.396.396 0 0 0-.239-.47l-1.536-.598a1.894 1.894 0 0 1-.58-.356 1.814 1.814 0 0 1-.11-2.602zm1.095.978l-1.121 1.19a.392.392 0 0 0 .15.637l1.551.592a1.84 1.84 0 0 1 1.106 2.246l-.48 1.547a.39.39 0 0 0-.016.138c.014.22.207.387.431.373l1.649-.116c.974-.062 1.837.612 1.99 1.556l.254 1.599c.007.042.02.082.04.12.105.194.35.27.55.168l1.433-.802c.282-.158.601-.24.926-.24a1.9 1.9 0 0 1 1.557.794l.935 1.334a.413.413 0 0 0 .67 0l.955-1.328a1.916 1.916 0 0 1 2.483-.554l1.433.802a.406.406 0 0 0 .59-.289l.253-1.598c.153-.944 1.016-1.619 1.99-1.556l1.65.115a.427.427 0 0 0 .14-.015.397.397 0 0 0 .275-.495l-.48-1.548a1.84 1.84 0 0 1 1.105-2.245l1.536-.598a.392.392 0 0 0 .148-.638l-1.12-1.189a1.821 1.821 0 0 1 0-2.493l1.12-1.19a.395.395 0 0 0-.15-.638l-1.537-.597a1.84 1.84 0 0 1-1.106-2.245l.466-1.542a.39.39 0 0 0 .016-.138.404.404 0 0 0-.432-.373l-1.648.116c-.974.062-1.837-.612-1.99-1.556l-.254-1.599a.395.395 0 0 0-.04-.12.412.412 0 0 0-.55-.169l-1.433.803c-.85.47-1.926.23-2.483-.554l-.935-1.334a.413.413 0 0 0-.67 0l-.949 1.328a1.916 1.916 0 0 1-2.483.554l-1.433-.803a.406.406 0 0 0-.59.289l-.253 1.6c-.154.943-1.016 1.618-1.991 1.555l-1.648-.115a.41.41 0 0 0-.345.147.381.381 0 0 0-.074.364l.48 1.547a1.84 1.84 0 0 1-1.105 2.245l-1.537.597a.392.392 0 0 0-.147.638l1.12 1.19a1.821 1.821 0 0 1-.002 2.493zm7.457 2.462l6.488-8.283a.748.748 0 0 1 1.032-.145c.326.24.392.692.148 1.01l-6.491 8.293a.748.748 0 0 1-1.032.136.712.712 0 0 1-.145-1.01zm7.373-3.131c1.303 0 2.359 1.034 2.359 2.309v.577c0 1.275-1.056 2.309-2.36 2.309-1.302 0-2.358-1.034-2.358-2.309v-.577c0-1.275 1.056-2.31 2.359-2.31zm0 1.443a.875.875 0 0 0-.885.866v.577c0 .478.396.866.885.866a.875.875 0 0 0 .884-.866v-.577a.875.875 0 0 0-.884-.866zm-9.437-4.907v-.577c0-1.275 1.056-2.31 2.36-2.31 1.302 0 2.358 1.035 2.358 2.31v.577c0 1.276-1.056 2.31-2.359 2.31s-2.359-1.034-2.359-2.31zm1.475 0c0 .478.396.866.884.866a.875.875 0 0 0 .885-.866v-.577a.875.875 0 0 0-.885-.866.875.875 0 0 0-.884.866z"/></defs><g><g transform="translate(-865 -811)"><use fill="#676767" xlink:href="#fywca"/></g></g></svg>