<svg xmlns="http://www.w3.org/2000/svg" xmlns:xlink="http://www.w3.org/1999/xlink" width="29" height="23" viewBox="0 0 29 23"><defs><path id="iv4sa" d="M359 3925.554v19.892a1.55 1.55 0 0 1-1.543 1.554h-25.914a1.55 1.55 0 0 1-1.543-1.554v-19.892a1.55 1.55 0 0 1 1.543-1.554h25.914c.85 0 1.543.697 1.543 1.554zm-1.235 19.21v-18.734l-9.302 9.45zm-.955-19.521h-24.737l10.67 10.72c.46.463 1.084.718 1.757.718a2.37 2.37 0 0 0 1.75-.742zm-25.576.904v18.605l9.284-9.277zm.747 19.61h25.024l-9.412-9.395-.467.475a3.671 3.671 0 0 1-2.626 1.087 3.67 3.67 0 0 1-2.625-1.086l-.483-.485z"/></defs><g><g transform="translate(-330 -3924)"><use fill="#626161" xlink:href="#iv4sa"/></g></g></svg>