<svg xmlns="http://www.w3.org/2000/svg" xmlns:xlink="http://www.w3.org/1999/xlink" width="28" height="17" viewBox="0 0 28 17"><defs><path id="e0raa" d="M909.322 2142.105c1.293-1.801 2.693-3.265 4.093-4.39 3.015-2.478 6.246-3.716 9.584-3.716 3.231 0 6.462 1.238 9.585 3.715 1.4 1.126 2.8 2.59 4.092 4.391l.323.338-.323.45c-1.292 1.802-2.692 3.153-4.092 4.39-3.123 2.478-6.354 3.716-9.585 3.716-3.338 0-6.569-1.238-9.584-3.715-1.4-1.238-2.8-2.59-4.093-4.39l-.322-.451zm4.955-3.265c-1.293 1.013-2.478 2.252-3.554 3.603 1.076 1.463 2.261 2.702 3.554 3.715 2.692 2.252 5.707 3.49 8.722 3.49 2.908 0 5.924-1.238 8.724-3.49 1.184-1.013 2.369-2.252 3.553-3.715-1.184-1.351-2.369-2.59-3.553-3.603-2.8-2.364-5.816-3.49-8.724-3.49-3.015 0-6.03 1.238-8.722 3.49zm8.722-2.364c1.616 0 3.016.675 4.093 1.801.97 1.014 1.615 2.59 1.615 4.166 0 1.689-.646 3.265-1.615 4.278-1.077 1.126-2.477 1.801-4.093 1.801-1.615 0-3.015-.675-4.092-1.801-1.077-1.013-1.723-2.59-1.723-4.278 0-1.576.646-3.152 1.723-4.166 1.077-1.126 2.477-1.801 4.092-1.801zm3.124 2.702c-.862-.788-1.939-1.351-3.124-1.351-1.292 0-2.369.563-3.122 1.35-.862.901-1.293 2.028-1.293 3.266 0 1.35.43 2.476 1.293 3.377.753.788 1.83 1.351 3.122 1.351 1.185 0 2.262-.563 3.124-1.35.753-.902 1.292-2.027 1.292-3.378 0-1.238-.539-2.365-1.292-3.265zm-.647 2.476c.108.338.108.564.108.789 0 1.576-1.184 2.814-2.585 2.814-1.507 0-2.692-1.238-2.692-2.814 0-1.464 1.185-2.702 2.692-2.702-.215.225-.215.563-.215.788 0 .9.647 1.689 1.508 1.689.538 0 .969-.226 1.184-.564z"/></defs><g><g transform="translate(-909 -2134)"><use fill="#fab49b" xlink:href="#e0raa"/></g></g></svg>