<svg xmlns="http://www.w3.org/2000/svg" xmlns:xlink="http://www.w3.org/1999/xlink" width="32" height="21" viewBox="0 0 32 21"><defs><path id="g9z7a" d="M360.058 826.26h-8.127v3.781h1.363a3.491 3.491 0 0 1 2.725-1.304c1.07 0 2.044.478 2.677 1.304h1.362zm-7.3 5.215h-10.56c.098 1.652-1.362 3.086-3.212 3.086-1.897 0-3.357-1.434-3.26-3.086h-4.04c-.437 0-.827-.304-.827-.739v-15.17c0-.434.39-.739.828-.739h19.466c.438 0 .778.305.778.74v3.607l3.99-.043c.293 0 .536.087.73.304l4.818 5.65c.146.087.195.261.195.479v5.172c0 .435-.34.739-.827.739h-1.606c.097 1.652-1.363 3.086-3.212 3.086-1.898 0-3.358-1.434-3.26-3.086zm3.261-1.26c-.925 0-1.655.652-1.655 1.434 0 .782.73 1.434 1.655 1.434.876 0 1.606-.608 1.606-1.434 0-.782-.73-1.434-1.606-1.434zm-14.356-.174h8.662v-13.78h-17.86v13.78h3.845c.584-.783 1.557-1.304 2.676-1.304 1.071 0 2.093.521 2.677 1.304zm-2.677.174c-.924 0-1.654.652-1.654 1.434 0 .826.73 1.434 1.654 1.434.876 0 1.606-.608 1.606-1.434 0-.782-.73-1.434-1.606-1.434zm12.945-9.606v4.216h7.3l-3.65-4.26z"/></defs><g><g transform="translate(-330 -814)"><use fill="#676767" xlink:href="#g9z7a"/></g></g></svg>