<svg xmlns="http://www.w3.org/2000/svg" xmlns:xlink="http://www.w3.org/1999/xlink" width="27" height="29" viewBox="0 0 27 29"><defs><path id="r72la" d="M960.502 3484.05c-3.83 0-6.935 3.334-6.935 7.445 0 4.112 3.105 7.444 6.935 7.444 3.83 0 6.934-3.332 6.934-7.444 0-4.111-3.104-7.445-6.934-7.445zm0 12.278c-2.486 0-4.501-2.164-4.501-4.833s2.015-4.832 4.501-4.832c2.487 0 4.502 2.163 4.502 4.832 0 2.67-2.015 4.833-4.502 4.833zm7.209-14.31c-.895 0-1.62.778-1.62 1.738 0 .961.725 1.741 1.62 1.741.895 0 1.62-.78 1.62-1.741 0-.96-.725-1.738-1.62-1.738zm6.214 3.501c-.065-1.543-.294-2.598-.628-3.521-.345-.95-.806-1.762-1.557-2.567a6.589 6.589 0 0 0-2.392-1.671c-.859-.36-1.84-.605-3.278-.675-1.44-.07-1.9-.086-5.568-.086-3.668 0-4.127.015-5.567.086-1.438.07-2.42.316-3.279.675-.888.37-1.64.866-2.391 1.671a7.182 7.182 0 0 0-1.558 2.567c-.334.923-.563 1.978-.628 3.521-.066 1.547-.081 2.04-.081 5.976 0 3.937.015 4.431.081 5.977.065 1.544.294 2.597.628 3.518a7.157 7.157 0 0 0 1.558 2.569 6.577 6.577 0 0 0 2.391 1.672c.86.358 1.84.603 3.279.674 1.44.07 1.9.087 5.567.087 3.668 0 4.128-.017 5.568-.087 1.437-.07 2.42-.316 3.278-.674a6.578 6.578 0 0 0 2.392-1.672 7.169 7.169 0 0 0 1.557-2.57c.334-.92.563-1.973.628-3.517.066-1.546.081-2.04.081-5.977 0-3.937-.015-4.43-.08-5.976zm-2.43 11.834c-.06 1.415-.28 2.182-.466 2.692a4.537 4.537 0 0 1-1.01 1.667c-.472.509-.922.82-1.553 1.085-.475.199-1.19.434-2.507.499-1.424.07-1.851.083-5.457.083s-4.033-.013-5.457-.083c-1.317-.065-2.031-.3-2.507-.499a4.174 4.174 0 0 1-1.553-1.085 4.538 4.538 0 0 1-1.01-1.667c-.185-.51-.405-1.277-.465-2.692-.065-1.528-.079-1.988-.079-5.858 0-3.87.014-4.329.079-5.858.06-1.414.28-2.18.465-2.692a4.532 4.532 0 0 1 1.01-1.666 4.16 4.16 0 0 1 1.553-1.085c.476-.199 1.19-.435 2.507-.5 1.424-.069 1.851-.084 5.457-.084s4.033.015 5.457.085c1.317.064 2.032.3 2.507.5.631.262 1.081.576 1.554 1.084.472.506.764.99 1.01 1.666.184.512.404 1.278.465 2.692.065 1.53.078 1.988.078 5.858 0 3.87-.013 4.33-.078 5.858z"/></defs><g><g transform="translate(-947 -3477)"><use fill="#626161" xlink:href="#r72la"/></g></g></svg>