<svg xmlns="http://www.w3.org/2000/svg" xmlns:xlink="http://www.w3.org/1999/xlink" width="256" height="61" viewBox="0 0 256 61"><defs><path id="oljta" d="M837.364 85.258c.079 3.136.464 4.13 1.506 4.437.733.191 1.583.23 1.93.23.194 0 .308.075.308.23 0 .23-.23.305-.694.305-2.2 0-3.744-.114-4.091-.114-.348 0-1.97.114-3.705.114-.386 0-.618-.04-.618-.305 0-.155.116-.23.308-.23.31 0 1.004-.039 1.584-.23.965-.268 1.157-1.378 1.157-4.858l.04-21.925c0-1.492.114-1.913.424-1.913.308 0 .965.842 1.35 1.225.58.65 6.33 6.81 12.274 13.123 3.82 4.055 8.028 8.723 9.262 9.985l-.424-19.436c-.038-2.487-.309-3.329-1.506-3.633-.694-.155-1.582-.193-1.89-.193-.27 0-.309-.115-.309-.267 0-.23.309-.269.772-.269 1.737 0 3.589.116 4.013.116.425 0 1.7-.116 3.282-.116.424 0 .694.04.694.27 0 .151-.154.266-.425.266-.192 0-.462 0-.925.115-1.274.269-1.43 1.11-1.43 3.405l-.076 22.422c0 2.525-.077 2.716-.348 2.716-.308 0-.772-.42-2.817-2.45-.425-.382-5.982-6.005-10.074-10.368a813.138 813.138 0 0 1-10.073-10.98zm36.777-14.344c.345-.872.472-1.028.66-1.028.283 0 .378.375.661.967.503 1.121 4.94 12.07 6.639 16.093 1.006 2.37 1.762 2.713 2.36 2.902.409.124.818.155 1.1.155.158 0 .346.06.346.219 0 .154-.314.218-.628.218-.41 0-2.455 0-4.374-.064-.534-.03-.976-.03-.976-.188 0-.124.063-.124.189-.185.158-.064.441-.283.253-.717l-2.486-6.083c-.063-.124-.095-.155-.253-.155h-6.385c-.126 0-.22.061-.284.216l-1.573 4.245c-.252.653-.41 1.309-.41 1.777 0 .528.473.717.944.717h.253c.22 0 .282.094.282.218 0 .155-.156.219-.409.219-.66 0-2.17-.094-2.485-.094-.283 0-1.668.094-2.8.094-.346 0-.535-.064-.535-.219 0-.124.126-.218.252-.218.19 0 .599-.03.818-.064 1.26-.155 1.794-1.09 2.329-2.43zm3.084 11.04c.125 0 .125-.06.093-.185l-2.737-7.267c-.158-.407-.314-.407-.472 0l-2.58 7.267c-.03.125 0 .186.095.186zm13.241 1.593c0-1.434-.188-1.966-.598-2.714-.219-.407-3.964-6.3-4.908-7.704-.66-.997-1.32-1.59-1.823-1.933-.41-.25-.944-.375-1.165-.375-.158 0-.283-.124-.283-.25 0-.125.095-.186.346-.186.535 0 2.611.061 2.737.061.188 0 1.322-.06 2.392-.06.314 0 .377.06.377.185 0 .094-.189.188-.44.282-.22.093-.346.218-.346.436 0 .375.188.685.377 1.029l5.033 8.266c.567-1.124 4.028-6.799 4.532-7.674.344-.592.472-1.028.472-1.372 0-.373-.128-.592-.442-.685-.251-.064-.409-.188-.409-.312 0-.095.158-.156.441-.156.724 0 1.698.061 1.92.061.188 0 2.17-.06 2.705-.06.189 0 .346.06.346.155 0 .124-.125.28-.346.28-.315 0-.85.093-1.29.344-.535.311-.786.592-1.384 1.309-.913 1.062-4.815 7.3-5.38 8.42-.472.936-.346 1.778-.346 2.653v2.276c0 .437 0 1.561.095 2.652.063.778.25 1.279 1.07 1.403a10.97 10.97 0 0 0 1.257.125c.158 0 .221.124.221.219 0 .124-.158.218-.441.218-1.542 0-3.335-.094-3.492-.094-.126 0-1.888.094-2.707.094-.314 0-.44-.064-.44-.218 0-.095.063-.22.221-.22.251 0 .566-.063.818-.124.566-.124.754-.625.817-1.403.063-1.09.063-2.215.063-2.652zm17.115-12.633c.345-.872.472-1.028.66-1.028.283 0 .378.375.661.967.503 1.121 4.94 12.07 6.638 16.093 1.007 2.37 1.763 2.713 2.36 2.902.41.124.818.155 1.1.155.158 0 .347.06.347.219 0 .154-.314.218-.629.218-.409 0-2.454 0-4.373-.064-.535-.03-.976-.03-.976-.188 0-.124.063-.124.188-.185.158-.064.442-.283.253-.717l-2.485-6.083c-.063-.124-.095-.155-.253-.155h-6.386c-.125 0-.22.061-.283.216l-1.574 4.245c-.251.653-.409 1.309-.409 1.777 0 .528.472.717.944.717h.253c.22 0 .282.094.282.218 0 .155-.156.219-.41.219-.66 0-2.17-.094-2.485-.094-.282 0-1.667.094-2.8.094-.346 0-.534-.064-.534-.219 0-.124.126-.218.251-.218.19 0 .6-.03.818-.064 1.26-.155 1.795-1.09 2.33-2.43zm3.083 11.04c.126 0 .126-.06.094-.185l-2.737-7.267c-.158-.407-.314-.407-.472 0l-2.58 7.267c-.031.125 0 .186.095.186zm11.541-3.897c0-4.117 0-4.865-.063-5.708-.063-.903-.219-1.34-1.132-1.465a9.235 9.235 0 0 0-.944-.063c-.094 0-.22-.124-.22-.218 0-.157.126-.218.44-.218 1.259 0 3.116.061 3.272.061.284 0 2.611-.06 3.462-.06 1.76 0 3.711.155 5.16 1.152.69.5 1.918 1.779 1.918 3.617 0 1.966-.818 3.868-3.398 6.052 2.265 2.808 4.184 5.208 5.79 6.86.998 1.012 1.738 1.454 2.327 1.663.765-.373 1.184-1.174 1.602-2.221l6.513-16.595c.345-.872.47-1.028.66-1.028.282 0 .377.375.66.967.503 1.121 4.94 12.07 6.639 16.093 1.007 2.37 1.762 2.713 2.36 2.902.409.124.818.155 1.1.155.158 0 .346.06.346.218 0 .155-.314.219-.628.219-.41 0-2.455 0-4.374-.064-.534-.03-.976-.03-.976-.188 0-.124.063-.124.189-.185.158-.064.441-.283.253-.717l-2.486-6.083c-.063-.124-.095-.155-.251-.155h-6.387c-.126 0-.22.061-.284.216l-1.573 4.245c-.251.653-.41 1.309-.41 1.777 0 .528.473.717.945.717h.252c.22 0 .282.094.282.218 0 .155-.156.219-.409.219-.512 0-1.537-.057-2.116-.082-.09.057-.27.082-.586.082h-1.73c-.146 0-.284-.001-.415-.004a24.95 24.95 0 0 1-.438.004c-.167 0-.298-.015-.388-.048-.764-.071-1.24-.226-1.716-.484-1.195-.622-2.202-1.901-3.776-3.897-1.163-1.435-2.39-3.151-2.988-3.868-.126-.125-.189-.155-.379-.155l-3.522-.064c-.126 0-.189.064-.189.219v.623c0 2.558 0 4.618.126 5.709.093.778.251 1.278 1.1 1.403.378.061.976.125 1.227.125.189 0 .22.124.22.219 0 .124-.125.218-.44.218-1.51 0-3.272-.094-3.397-.094-.031 0-1.888.094-2.737.094-.284 0-.442-.064-.442-.218 0-.095.063-.22.22-.22.252 0 .599-.063.85-.124.536-.125.599-.625.725-1.403.156-1.09.156-3.181.156-5.74zm2.392 2.245c0 .158.063.249.189.343.409.22 1.824.407 3.05.407.662 0 1.416-.033 2.078-.468.943-.625 1.668-2.029 1.668-4.055 0-3.306-1.826-5.208-4.783-5.208-.818 0-1.7.093-1.983.155-.125.062-.219.155-.219.313zm25.418 1.653c.125 0 .125-.061.093-.186l-2.736-7.267c-.158-.407-.315-.407-.473 0l-2.58 7.267c-.03.125 0 .186.095.186zm53.438 3.607c.154 1.379.424 3.521 2.083 4.056.795.245 1.53.317 2.029.337.045-.005.088-.01.124-.016 1.259-.155 1.795-1.09 2.33-2.43l6.512-16.595c.345-.872.47-1.028.66-1.028.283 0 .378.375.661.967.503 1.121 4.939 12.07 6.638 16.093 1.007 2.37 1.762 2.713 2.36 2.902.41.124.818.155 1.1.155.158 0 .347.06.347.219 0 .154-.314.218-.629.218-.409 0-2.454 0-4.373-.064-.535-.03-.976-.03-.976-.188 0-.124.063-.124.188-.185.158-.064.442-.283.253-.717l-2.485-6.083c-.063-.124-.095-.155-.252-.155h-6.387c-.125 0-.22.061-.283.216l-1.574 4.245c-.251.653-.409 1.309-.409 1.777 0 .528.472.717.944.717h.253c.22 0 .282.094.282.218 0 .155-.156.219-.41.219-.66 0-2.17-.094-2.483-.094-.208 0-1.005.05-1.862.077-.142.05-.334.075-.55.075-.85 0-5.018-.038-6.445-.152-.888-.077-1.081-.191-1.081-.382 0-.155.077-.23.27-.269.192-.038.231-.689.154-1.378L998.59 68.46h-.115l-9.457 19.896c-.81 1.683-.925 2.029-1.273 2.029-.27 0-.464-.385-1.197-1.76-1.004-1.875-4.323-8.495-4.515-8.877-.348-.689-4.67-9.872-5.094-10.905h-.155l-1.545 17.752c-.037.612-.037 1.301-.037 1.952 0 .575.424 1.07 1.002 1.187a7.227 7.227 0 0 0 1.468.191c.153 0 .308.075.308.191 0 .269-.231.344-.695.344-1.427 0-3.28-.114-3.589-.114-.347 0-2.2.114-3.242.114-.385 0-.656-.075-.656-.344 0-.116.192-.19.385-.19.31 0 .58 0 1.16-.117 1.273-.23 1.389-1.722 1.542-3.175l2.779-24.947c.039-.42.194-.688.424-.688.232 0 .387.154.58.574l11.81 24.067 11.347-24.028c.155-.346.31-.613.58-.613.27 0 .385.306.463 1.034zm16.161-3.607c.126 0 .126-.061.094-.186l-2.737-7.267c-.158-.407-.314-.407-.472 0l-2.58 7.267c-.031.125 0 .186.095.186zm11.542-3.898c0-4.117 0-4.865-.062-5.708-.063-.903-.22-1.34-1.133-1.465a9.238 9.238 0 0 0-.944-.063c-.093 0-.219-.124-.219-.218 0-.157.126-.218.44-.218 1.258 0 3.115.061 3.272.061.283 0 2.61-.06 3.461-.06 1.76 0 3.712.155 5.16 1.152.69.5 1.918 1.779 1.918 3.617 0 1.966-.818 3.868-3.397 6.052 2.265 2.808 4.183 5.208 5.79 6.86 1.478 1.498 2.39 1.748 3.082 1.841.535.095.817.095.975.095.057 0 .106.016.145.041a.22.22 0 0 1 .136-.041c.25 0 .597-.064.849-.125.536-.124.599-.625.724-1.403.157-1.09.157-3.181.157-5.74v-4.678c0-4.117 0-4.865-.063-5.708-.063-.903-.22-1.34-1.133-1.465a9.238 9.238 0 0 0-.944-.063c-.093 0-.219-.124-.219-.218 0-.157.126-.218.44-.218 1.258 0 3.115.061 3.272.061.283 0 2.611-.06 3.461-.06 1.761 0 3.712.155 5.16 1.152.69.5 1.918 1.779 1.918 3.617 0 1.966-.818 3.868-3.397 6.052 2.265 2.808 4.184 5.208 5.79 6.86.997 1.012 1.737 1.454 2.326 1.663.765-.373 1.183-1.174 1.601-2.221l6.513-16.595c.345-.872.472-1.028.66-1.028.282 0 .377.375.66.967.503 1.121 4.94 12.07 6.639 16.093 1.007 2.37 1.762 2.713 2.36 2.902.409.124.818.155 1.1.155.158 0 .346.06.346.219 0 .154-.314.218-.628.218-.41 0-2.455 0-4.373-.064-.535-.03-.976-.03-.976-.188 0-.124.062-.124.188-.185.158-.064.441-.283.253-.717l-2.486-6.083c-.062-.124-.095-.154-.252-.154h-6.386c-.126 0-.22.06-.283.215l-1.574 4.245c-.251.653-.41 1.309-.41 1.777 0 .529.473.717.945.717h.252c.22 0 .283.094.283.219 0 .154-.157.218-.41.218-.512 0-1.534-.056-2.115-.082-.09.057-.27.082-.585.082h-1.73c-.146 0-.285-.001-.416-.004-.149.003-.296.004-.439.004-.167 0-.298-.015-.388-.048-.763-.072-1.238-.226-1.715-.484-1.195-.622-2.202-1.901-3.775-3.897-1.163-1.435-2.39-3.151-2.989-3.868-.125-.125-.188-.155-.378-.155l-3.523-.064c-.126 0-.188.064-.188.219v.623c0 2.558 0 4.618.125 5.709.094.778.251 1.279 1.1 1.403.379.061.977.125 1.228.125.188 0 .22.124.22.219 0 .124-.125.218-.44.218-1.51 0-3.272-.094-3.398-.094-.03 0-1.888.094-2.737.094-.16 0-.28-.02-.354-.066-.097.046-.271.066-.556.066h-1.73c-1.574 0-2.265-.157-2.958-.532-1.195-.622-2.202-1.901-3.776-3.897-1.163-1.435-2.39-3.151-2.988-3.868-.125-.125-.188-.155-.378-.155l-3.523-.064c-.126 0-.189.064-.189.219v.623c0 2.558 0 4.618.126 5.709.094.778.252 1.279 1.1 1.403.379.061.976.125 1.228.125.188 0 .22.124.22.219 0 .124-.125.218-.44.218-1.51 0-3.272-.094-3.398-.094-.03 0-1.888.094-2.737.094-.283 0-.441-.064-.441-.218 0-.095.063-.22.22-.22.252 0 .598-.063.85-.124.536-.124.598-.625.724-1.403.156-1.09.156-3.181.156-5.74zm2.392 2.245c0 .158.063.249.189.343.41.22 1.825.407 3.05.407.663 0 1.417-.033 2.079-.468.942-.625 1.667-2.029 1.667-4.055 0-3.306-1.825-5.208-4.783-5.208-.818 0-1.699.093-1.982.155-.126.062-.22.155-.22.313zm20.354 0c0 .158.062.249.188.343.41.22 1.825.407 3.051.407.662 0 1.416-.033 2.078-.468.942-.625 1.667-2.029 1.667-4.055 0-3.306-1.825-5.208-4.782-5.208-.819 0-1.7.093-1.983.155-.126.062-.22.155-.22.313zm25.416 1.653c.125 0 .125-.061.093-.186l-2.736-7.267c-.158-.407-.315-.407-.472 0l-2.58 7.267c-.031.125 0 .186.094.186zm-183.24 34.89c0 1.76-.038 2.437-.373 3.203-.245.548-.747 1.059-1.66 1.66a8.157 8.157 0 0 1-.464.28c-.013 0-.039.013-.078.013-.026 0-.077-.014-.077-.065 0-.064.039-.115.142-.179.141-.076.296-.204.399-.293.733-.728 1.081-1.289 1.081-4.084v-3.14c0-1.682 0-1.99-.026-2.333-.025-.37-.09-.55-.463-.6a3.718 3.718 0 0 0-.386-.025c-.039 0-.09-.053-.09-.09 0-.064.051-.09.18-.09.515 0 1.249.026 1.313.026.052 0 .76-.027 1.107-.027.129 0 .18.027.18.09 0 .038-.051.09-.09.09-.077 0-.155 0-.283.025-.31.064-.374.216-.4.601-.012.343-.012.65-.012 2.334zm7.452-5.896c2.548 0 4.479 1.545 4.479 4.07 0 2.425-1.815 4.43-4.544 4.43-3.102 0-4.428-2.31-4.428-4.264 0-1.747 1.364-4.236 4.493-4.236zm.257 8.052c1.017 0 3.064-.535 3.064-3.675 0-2.602-1.597-3.968-3.386-3.968-1.892 0-3.256 1.174-3.256 3.533 0 2.528 1.531 4.11 3.578 4.11zm8.261-2.846c0 1.047 0 1.9.052 2.35.038.318.077.523.412.572.167.025.412.052.514.052.064 0 .09.051.09.09 0 .05-.051.089-.18.089-.63 0-1.364-.04-1.416-.04-.064 0-.772.04-1.12.04-.115 0-.18-.026-.18-.09 0-.038.026-.09.09-.09.103 0 .245-.026.348-.05.218-.05.257-.255.296-.574.051-.448.064-1.302.064-2.349v-1.914c0-1.683 0-1.99-.025-2.334-.026-.37-.117-.537-.36-.588a2.064 2.064 0 0 0-.348-.037c-.052 0-.09-.053-.09-.09 0-.064.051-.09.18-.09.373 0 1.081.026 1.145.026.052 0 .786-.027 1.133-.027.129 0 .18.027.18.09 0 .038-.051.09-.09.09-.077 0-.154 0-.283.025-.31.064-.374.216-.4.601-.012.343-.012.65-.012 2.334zm6.344-4.836c.142-.357.194-.42.271-.42.116 0 .155.153.27.395.206.458 2.022 4.937 2.716 6.585.412.969.722 1.11.966 1.186.168.051.334.064.45.064.065 0 .142.026.142.09 0 .063-.128.089-.258.089-.166 0-1.004 0-1.79-.026-.218-.013-.398-.013-.398-.077 0-.05.026-.05.078-.076.064-.027.18-.115.102-.294l-1.017-2.487c-.025-.053-.038-.064-.102-.064h-2.614c-.051 0-.09.025-.116.088l-.643 1.737c-.103.267-.167.535-.167.726 0 .218.193.294.386.294h.103c.09 0 .115.039.115.09 0 .063-.064.089-.167.089-.27 0-.888-.04-1.017-.04-.115 0-.682.04-1.145.04-.142 0-.219-.026-.219-.09 0-.05.051-.09.103-.09.077 0 .244-.012.335-.026.514-.063.733-.445.952-.993zm1.262 4.516c.052 0 .052-.024.039-.074l-1.12-2.973c-.065-.166-.129-.166-.193 0l-1.056 2.973c-.012.05 0 .074.039.074zm4.849 3.32c-.155-.078-.167-.116-.167-.41 0-.534.05-.969.064-1.147 0-.115.026-.179.09-.179s.104.039.104.128c0 .088 0 .242.038.396.18.791 1.03 1.07 1.79 1.07 1.12 0 1.698-.625 1.698-1.442 0-.778-.424-1.149-1.428-1.888l-.516-.382c-1.222-.906-1.622-1.57-1.622-2.322 0-1.277 1.018-2.043 2.511-2.043.45 0 .9.064 1.17.128.22.052.31.052.4.052.09 0 .116.012.116.076 0 .05-.051.408-.051 1.147 0 .166-.013.244-.09.244-.078 0-.09-.051-.104-.141a1.965 1.965 0 0 0-.167-.535c-.077-.128-.45-.537-1.467-.537-.824 0-1.506.409-1.506 1.174 0 .69.347 1.085 1.467 1.838l.322.216c1.377.933 1.854 1.686 1.854 2.616 0 .639-.245 1.328-1.056 1.851-.476.306-1.185.384-1.803.384-.527 0-1.184-.078-1.647-.294zm13.165-4.914c0-1.683 0-1.99-.026-2.334-.025-.37-.09-.55-.463-.6a3.716 3.716 0 0 0-.386-.025c-.039 0-.09-.053-.09-.09 0-.064.051-.09.18-.09.515 0 1.249.026 1.313.026.077 0 2.446.012 2.703 0 .219-.012.425-.051.515-.064.052-.012.103-.051.154-.051.04 0 .052.051.052.103 0 .075-.064.203-.09.509-.013.102-.039.587-.064.714-.014.053-.052.116-.104.116-.064 0-.09-.05-.09-.14a1.17 1.17 0 0 0-.064-.383c-.077-.18-.193-.255-.81-.332-.194-.025-1.507-.039-1.636-.039-.051 0-.064.04-.064.116v2.947c0 .077 0 .115.064.115.142 0 1.635 0 1.892-.025.271-.026.438-.038.554-.153.077-.076.13-.14.168-.14.038 0 .064.025.064.088 0 .064-.064.242-.09.6-.026.217-.052.625-.052.702 0 .09-.026.204-.103.204-.051 0-.077-.038-.077-.102 0-.102 0-.217-.052-.357-.038-.154-.14-.281-.579-.332-.309-.039-1.519-.05-1.712-.05-.064 0-.077.037-.077.075v.906c0 .37-.013 1.634 0 1.851.026.728.232.866 1.352.866.296 0 .836 0 1.132-.113.296-.127.451-.318.515-.753.026-.127.052-.166.116-.166.065 0 .077.089.077.166 0 .076-.09.817-.154 1.047-.078.28-.194.28-.63.28-.85 0-1.507-.025-1.97-.038-.477-.026-.773-.026-.94-.026-.026 0-.245 0-.49.013-.218.013-.476.026-.656.026-.116 0-.18-.026-.18-.09 0-.038.026-.09.09-.09.103 0 .245-.037.348-.05.219-.04.244-.255.296-.574.064-.448.064-1.302.064-2.349zm11.607 4.914c-.155-.078-.167-.116-.167-.41 0-.534.051-.969.064-1.147 0-.115.026-.179.09-.179s.103.039.103.128c0 .088 0 .242.039.396.18.791 1.03 1.07 1.79 1.07 1.12 0 1.698-.625 1.698-1.442 0-.778-.425-1.149-1.428-1.888l-.516-.382c-1.222-.906-1.622-1.57-1.622-2.322 0-1.277 1.018-2.043 2.51-2.043.451 0 .902.064 1.172.128.219.052.31.052.4.052.09 0 .115.012.115.076 0 .05-.052.408-.052 1.147 0 .166-.012.244-.09.244-.077 0-.09-.051-.102-.141a1.99 1.99 0 0 0-.168-.535c-.077-.128-.45-.537-1.467-.537-.824 0-1.506.409-1.506 1.174 0 .69.347 1.085 1.467 1.838l.322.216c1.377.933 1.854 1.686 1.854 2.616 0 .639-.245 1.328-1.056 1.851-.477.306-1.185.384-1.803.384-.527 0-1.184-.078-1.647-.294zm8.082-4.914c0-1.683 0-1.99-.026-2.334-.026-.37-.09-.55-.464-.6a3.724 3.724 0 0 0-.386-.025c-.038 0-.09-.053-.09-.09 0-.064.052-.09.18-.09.516 0 1.25.026 1.314.026.076 0 2.445.012 2.703 0 .218-.012.424-.051.514-.064.052-.012.104-.051.155-.051.039 0 .051.051.051.103 0 .075-.064.203-.09.509-.012.102-.038.587-.064.714-.013.053-.052.116-.103.116-.065 0-.09-.05-.09-.14 0-.077-.013-.256-.065-.383-.077-.18-.192-.255-.81-.332-.193-.025-1.507-.039-1.635-.039-.052 0-.064.04-.064.116v2.947c0 .077 0 .115.064.115.141 0 1.635 0 1.892-.025.27-.026.438-.038.553-.153.078-.076.13-.14.168-.14.038 0 .064.025.064.088 0 .064-.064.242-.09.6-.026.217-.052.625-.052.702 0 .09-.025.204-.102.204-.052 0-.078-.038-.078-.102 0-.102 0-.217-.051-.357-.039-.154-.141-.281-.58-.332-.308-.039-1.518-.05-1.712-.05-.064 0-.076.037-.076.075v.906c0 .37-.014 1.634 0 1.851.025.728.231.866 1.351.866.296 0 .837 0 1.133-.113.296-.127.45-.318.515-.753.026-.127.052-.166.116-.166s.077.089.077.166c0 .076-.09.817-.155 1.047-.077.28-.193.28-.63.28-.85 0-1.507-.025-1.97-.038-.477-.026-.773-.026-.94-.026-.025 0-.245 0-.489.013-.218.013-.476.026-.656.026-.116 0-.18-.026-.18-.09 0-.038.025-.09.09-.09.102 0 .244-.037.347-.05.219-.04.245-.255.296-.574.065-.448.065-1.302.065-2.349zm16.217 3.676c.038.383.116.97.58 1.122.321.102.617.102.733.102.052 0 .09.027.09.078 0 .063-.103.102-.232.102-.257 0-1.519-.013-1.93-.052-.27-.025-.323-.064-.323-.114 0-.039.026-.078.078-.09.064-.012.077-.178.052-.384l-.541-5.511h-.026l-2.729 5.538c-.232.472-.296.574-.399.574-.103 0-.167-.102-.386-.498a76.996 76.996 0 0 1-1.326-2.514c-.334-.69-1.248-2.514-1.442-2.96h-.051l-.438 4.9c-.013.166-.013.37-.013.55 0 .165.103.268.27.305.194.051.36.064.438.064.039 0 .09.039.09.076 0 .077-.077.103-.206.103-.424 0-.965-.04-1.055-.04-.103 0-.644.04-.953.04-.116 0-.193-.026-.193-.103 0-.037.052-.076.116-.076.09 0 .167-.013.335-.038.373-.063.386-.46.437-.869l.824-7.082c.013-.114.065-.19.129-.19.077 0 .167.038.232.166l3.424 6.737 3.295-6.725c.052-.102.103-.179.18-.179.078 0 .142.089.168.294zm5.081-1.762c0 1.047 0 1.9.052 2.35.038.318.077.523.412.572.167.025.412.052.514.052.065 0 .09.051.09.09 0 .05-.051.089-.18.089-.63 0-1.364-.04-1.416-.04-.064 0-.772.04-1.12.04-.115 0-.18-.026-.18-.09 0-.038.026-.09.09-.09.103 0 .245-.026.348-.05.219-.05.257-.255.296-.574.051-.448.064-1.302.064-2.349v-1.914c0-1.683 0-1.99-.025-2.334-.026-.37-.116-.537-.36-.588a2.064 2.064 0 0 0-.348-.037c-.052 0-.09-.053-.09-.09 0-.064.051-.09.18-.09.373 0 1.081.026 1.145.026.052 0 .786-.027 1.133-.027.129 0 .18.027.18.09 0 .038-.051.09-.09.09-.077 0-.154 0-.283.025-.31.064-.373.216-.4.601-.012.343-.012.65-.012 2.334zm6.807-.843c.22 0 .386.027.386.129 0 .154-.244.179-.45.217-.348.05-2.626.357-3.063.471-.245.065-.464.192-.528.192-.078 0-.09-.076-.064-.192l.192-.714c.026-.089.078-.103.284-.103zm4.504 1.533c0 1.76-.039 2.437-.373 3.203-.245.548-.747 1.059-1.66 1.66a8.199 8.199 0 0 1-.464.28c-.013 0-.038.013-.078.013-.025 0-.076-.014-.076-.065 0-.064.038-.115.14-.179.142-.076.297-.204.4-.293.734-.728 1.081-1.289 1.081-4.084v-3.14c0-1.682 0-1.99-.025-2.333-.026-.37-.09-.55-.464-.6a3.718 3.718 0 0 0-.386-.025c-.038 0-.09-.053-.09-.09 0-.064.052-.09.18-.09.515 0 1.25.026 1.313.026.051 0 .76-.027 1.107-.027.13 0 .18.027.18.09 0 .038-.05.09-.09.09-.077 0-.154 0-.283.025-.309.064-.373.216-.4.601-.012.343-.012.65-.012 2.334zm7.451-5.896c2.549 0 4.48 1.545 4.48 4.07 0 2.425-1.816 4.43-4.544 4.43-3.103 0-4.428-2.31-4.428-4.264 0-1.747 1.364-4.236 4.492-4.236zm.257 8.052c1.017 0 3.064-.535 3.064-3.675 0-2.602-1.596-3.968-3.385-3.968-1.893 0-3.257 1.174-3.257 3.533 0 2.528 1.532 4.11 3.578 4.11zm8.262-2.846c0 1.047 0 1.9.052 2.35.038.318.077.523.412.572.167.025.412.052.514.052.065 0 .09.051.09.09 0 .05-.051.089-.18.089-.63 0-1.364-.04-1.415-.04-.065 0-.773.04-1.12.04-.116 0-.18-.026-.18-.09 0-.038.025-.09.09-.09.102 0 .244-.026.347-.05.219-.05.257-.255.296-.574.051-.448.065-1.302.065-2.349v-1.914c0-1.683 0-1.99-.026-2.334-.026-.37-.116-.537-.36-.588a2.07 2.07 0 0 0-.348-.037c-.052 0-.09-.053-.09-.09 0-.064.051-.09.18-.09.373 0 1.081.026 1.146.026.051 0 .785-.027 1.132-.027.129 0 .18.027.18.09 0 .038-.051.09-.09.09-.077 0-.154 0-.283.025-.31.064-.373.216-.4.601-.012.343-.012.65-.012 2.334zm6.345-4.836c.141-.357.193-.42.27-.42.116 0 .155.153.27.395.207.458 2.021 4.937 2.717 6.585.412.969.72 1.11.965 1.186.168.051.335.064.45.064.065 0 .142.026.142.09 0 .063-.128.089-.257.089-.167 0-1.004 0-1.79-.026-.218-.013-.398-.013-.398-.077 0-.05.025-.05.077-.076.064-.027.18-.115.103-.294l-1.017-2.487c-.026-.053-.039-.064-.103-.064h-2.614c-.051 0-.09.025-.115.088l-.644 1.737c-.103.267-.167.535-.167.726 0 .218.193.294.386.294h.103c.09 0 .116.039.116.09 0 .063-.064.089-.167.089-.271 0-.889-.04-1.017-.04-.116 0-.682.04-1.146.04-.142 0-.219-.026-.219-.09 0-.05.051-.09.103-.09.077 0 .244-.012.334-.026.516-.063.734-.445.953-.993zm1.261 4.516c.052 0 .052-.024.04-.074l-1.12-2.973c-.065-.166-.13-.166-.194 0l-1.056 2.973c-.012.05 0 .074.039.074zm4.85 3.32c-.155-.078-.167-.116-.167-.41 0-.534.05-.969.064-1.147 0-.115.026-.179.09-.179s.104.039.104.128c0 .088 0 .242.038.396.18.791 1.03 1.07 1.79 1.07 1.12 0 1.698-.625 1.698-1.442 0-.778-.424-1.149-1.428-1.888l-.516-.382c-1.222-.906-1.622-1.57-1.622-2.322 0-1.277 1.018-2.043 2.511-2.043.45 0 .9.064 1.17.128.22.052.31.052.4.052.09 0 .116.012.116.076 0 .05-.052.408-.052 1.147 0 .166-.012.244-.09.244-.077 0-.09-.051-.103-.141a1.965 1.965 0 0 0-.167-.535c-.077-.128-.45-.537-1.467-.537-.824 0-1.506.409-1.506 1.174 0 .69.347 1.085 1.467 1.838l.322.216c1.377.933 1.854 1.686 1.854 2.616 0 .639-.245 1.328-1.056 1.851-.476.306-1.185.384-1.803.384-.527 0-1.184-.078-1.647-.294z"/></defs><g><g transform="translate(-832 -61)"><use xlink:href="#oljta"/></g></g></svg>