<svg xmlns="http://www.w3.org/2000/svg" xmlns:xlink="http://www.w3.org/1999/xlink" width="30" height="22" viewBox="0 0 30 22"><defs><path id="mv2ua" d="M674.76 813.998c.356 0 .68.34.68.712 0 2.32.006 4.608 0 6.929h4.878c.357 0 .682.339.682.711v12.934c0 .373-.325.712-.682.712H657.24c-.356 0-.681-.339-.681-.712v-5.75h-4.867c-.357 0-.682-.339-.682-.711 0-4.724-.01-9.394 0-14.113-.002-.348.276-.674.607-.712h23.142zm-22.386 3.826h21.704v-2.402h-21.704zm0 3.815h21.704v-2.391h-21.704zm0 6.472h4.185v-5.049h-4.185zm5.548 6.462h21.715v-11.51h-21.715v11.51zm10.834-8.42a2.953 2.953 0 0 1 1.714-.557c1.698 0 3.09 1.453 3.09 3.226 0 1.77-1.392 3.226-3.09 3.226a2.956 2.956 0 0 1-1.714-.557 2.988 2.988 0 0 1-1.726.557c-1.697 0-3.089-1.457-3.089-3.226 0-1.772 1.392-3.226 3.09-3.226.636 0 1.23.205 1.725.556zm-3.451 2.669c0 1 .764 1.802 1.725 1.802.277 0 .536-.08.767-.2a3.323 3.323 0 0 1-.415-1.602c0-.583.164-1.129.426-1.602a1.656 1.656 0 0 0-.778-.2c-.961 0-1.725.797-1.725 1.802zm3.44 0c0 .999.769 1.802 1.725 1.802.961 0 1.726-.803 1.726-1.802 0-1.004-.765-1.802-1.726-1.802-.956 0-1.725.798-1.725 1.802z"/></defs><g><g transform="translate(-651 -814)"><use fill="#676767" xlink:href="#mv2ua"/></g></g></svg>