<svg xmlns="http://www.w3.org/2000/svg" xmlns:xlink="http://www.w3.org/1999/xlink" width="14" height="32" viewBox="0 0 14 32"><defs><path id="7u8na" d="M935.114 4083.262c-.294-.406-.603-.803-.88-1.221a18.87 18.87 0 0 1-2.185-5.17 27.19 27.19 0 0 1-1.027-8.623c.167-3.566.82-7.035 2.346-10.317a11.685 11.685 0 0 1 2.151-3.287 4.744 4.744 0 0 1 3.43-1.602c1.103-.018 2.209-.075 3.303-.003 1.684.117 2.665 1.08 2.717 2.738a74.615 74.615 0 0 1-.054 5.279c-.058 1.333-1.152 2.407-2.51 2.464-.977.065-1.955.037-2.933.054-.086-.002-.169-.012-.322-.019a19.193 19.193 0 0 0-.037 10.88l2.318-.024a4.165 4.165 0 0 1 1.815.246 2.39 2.39 0 0 1 1.549 2.185c.037 1.852.025 3.706-.037 5.562-.053 1.312-1.103 2.383-2.436 2.487-1.267.108-2.559.119-3.838.102a4.097 4.097 0 0 1-2.427-.903 1.777 1.777 0 0 0-.17-.091zm1.462-.873a3.142 3.142 0 0 0 2.4 1.015c.894-.025 1.786-.029 2.679-.043a3.2 3.2 0 0 0 .342-.022 1.126 1.126 0 0 0 1.124-1.148c.032-.727.023-1.452.029-2.178.004-.942.017-1.882.008-2.822a1.076 1.076 0 0 0-1.097-1.138c-.132-.012-.265-.009-.4-.008-.92.002-1.842.013-2.76.008a1.229 1.229 0 0 1-1.283-.896 19.42 19.42 0 0 1-.383-1.256 19.558 19.558 0 0 1-.507-5.8c.03-1.725.34-3.437.922-5.071.337-.868.693-1.1 1.63-1.093.937.009 1.936.022 2.903-.01a1.054 1.054 0 0 0 1.111-1.055c.01-.122.014-.242.017-.361l.032-4.483c-.003-.95-.429-1.378-1.402-1.376-.973.002-1.86-.024-2.79.02a3.748 3.748 0 0 0-1.298.262 4.702 4.702 0 0 0-1.94 1.857 16.076 16.076 0 0 0-1.795 3.74 26.135 26.135 0 0 0-1.37 7.103c-.3 4.24.471 8.477 2.244 12.335a9.28 9.28 0 0 0 1.595 2.41z"/></defs><g><g transform="translate(-931 -4053)"><use fill="#563b32" xlink:href="#7u8na"/></g></g></svg>