<svg xmlns="http://www.w3.org/2000/svg" xmlns:xlink="http://www.w3.org/1999/xlink" width="278" height="28" viewBox="0 0 278 28"><defs><path id="b037a" d="M1319.36 3928.221v2.194h4.059l-.67 3.531h-3.388v10.744h-4.728v-10.744h-2.636v-3.531h2.636v-2.454h.009c.079-2.322.986-4.532 5.409-4.669v-.015h3.368v3.533h-2.636c-.837 0-1.422.631-1.422 1.411zm111.346 1.235c0 .024.003.044.003.066l-.002.06c0 .009 0 .017.002.025.318 7.421-5.59 13.436-13.197 13.436-2.677 0-5.206-.746-7.376-2.034 3.195.494 6.042-1.057 6.8-1.91-2.124 0-4.066-1.77-4.216-3.122.427.06 1.41.146 1.964-.146-2.88-.77-3.67-2.894-3.638-4.495.481.458 1.504.561 2.059.52-1.622-.98-2.86-3.664-1.43-6.08 2.326 2.957 6.188 4.685 9.72 4.775h.001a4.51 4.51 0 0 1-.119-1.029c0-2.537 2.112-4.597 4.715-4.597a4.76 4.76 0 0 1 3.409 1.421v-.002c.752 0 2.276-.602 2.94-1.018-.252.945-1.274 2.136-1.964 2.5 1.075-.102 2.23-.517 2.615-.725-.664 1.076-1.593 1.893-2.286 2.354zM1590 3939.988c0 .777-.663 1.406-1.481 1.406h-19.894c-.818 0-1.481-.63-1.481-1.406v-13.658c0-.777.663-1.406 1.481-1.406h19.894c.818 0 1.481.63 1.481 1.406zm-14.39-11.248v8.837l7.618-4.418zm-95.003 4.42c0 3.737-3.002 6.766-6.707 6.766-3.704 0-6.707-3.029-6.707-6.767 0-3.736 3.003-6.767 6.707-6.767 3.705 0 6.707 3.03 6.707 6.767zm-2.353 0c0-2.426-1.949-4.392-4.354-4.392-2.404 0-4.353 1.966-4.353 4.391 0 2.427 1.949 4.394 4.353 4.394 2.405 0 4.354-1.967 4.354-4.394zm4.186-7.035c0 .874-.702 1.583-1.568 1.583-.865 0-1.567-.709-1.567-1.583 0-.872.702-1.579 1.567-1.579.866 0 1.567.707 1.567 1.58zm4.52 7.034c0 3.58-.014 4.029-.077 5.433-.064 1.404-.285 2.361-.607 3.198a6.451 6.451 0 0 1-1.507 2.335 6.378 6.378 0 0 1-2.313 1.52c-.831.326-1.78.548-3.17.613-1.394.064-1.839.079-5.386.079s-3.991-.015-5.384-.079c-1.391-.065-2.34-.287-3.171-.613a6.375 6.375 0 0 1-2.313-1.52 6.442 6.442 0 0 1-1.507-2.335c-.323-.837-.544-1.794-.607-3.198-.064-1.404-.079-1.853-.079-5.433 0-3.578.015-4.025.08-5.431.062-1.403.283-2.362.606-3.2.334-.865.78-1.602 1.507-2.334a6.39 6.39 0 0 1 2.313-1.519c.83-.326 1.78-.55 3.17-.613 1.394-.064 1.838-.079 5.385-.079 3.547 0 3.992.015 5.386.079 1.39.063 2.339.286 3.17.613a6.393 6.393 0 0 1 2.313 1.52 6.481 6.481 0 0 1 1.507 2.332c.322.84.543 1.798.607 3.2.063 1.407.078 1.854.078 5.432zm-2.352 0c0-3.517-.013-3.934-.076-5.324-.059-1.285-.271-1.982-.45-2.446a4.087 4.087 0 0 0-.977-1.516 4.04 4.04 0 0 0-1.502-.985c-.46-.18-1.152-.395-2.425-.454-1.377-.063-1.79-.078-5.278-.078-3.487 0-3.9.015-5.277.078-1.274.059-1.965.273-2.425.454a4.035 4.035 0 0 0-1.502.985c-.457.46-.74.9-.977 1.516-.18.464-.392 1.16-.45 2.446-.063 1.39-.076 1.807-.076 5.324 0 3.519.013 3.936.076 5.325.058 1.286.27 1.984.45 2.447.237.616.52 1.054.977 1.516.457.462.892.745 1.502.986.46.18 1.15.395 2.425.453 1.377.064 1.79.076 5.277.076 3.488 0 3.901-.012 5.278-.076 1.273-.058 1.965-.273 2.425-.453a4.057 4.057 0 0 0 1.502-.986c.457-.462.74-.9.977-1.516.179-.463.391-1.161.45-2.447.063-1.389.076-1.806.076-5.325zm-110.76-1.955c.66 4.735-1.328 11.838-9.462 11.838-5.44 0-9.852-4.424-9.852-9.883 0-5.457 4.411-9.882 9.852-9.882 2.554 0 4.88.974 6.63 2.572-2.061 1.954-1.994 2.07-2.804 2.882-1.013-.84-2.117-1.442-3.826-1.442-3.232 0-5.755 2.628-5.755 5.87 0 3.244 2.523 5.872 5.755 5.872 3.195 0 4.492-1.381 5.327-3.92-1.541 0-5.327.004-5.327.004v-3.911h9.463zm2.342 2.642v-2.447h3.511v-3.426h2.439v3.426h3.414v2.447h-3.414v3.522h-2.439v-3.522zm151.684 6.45c-1.533-.133-2.177-.977-3.378-1.788-.662 3.852-1.469 7.545-3.86 9.473-.739-5.821 1.084-10.193 1.93-14.834-1.443-2.7.173-8.13 3.217-6.79 3.744 1.645-3.243 10.032 1.447 11.08 4.898 1.092 6.897-9.443 3.86-12.868-4.387-4.949-12.772-.114-11.741 6.97.25 1.731 1.86 2.256.643 4.645-2.808-.69-3.646-3.153-3.539-6.433.174-5.371 4.343-9.13 8.525-9.65 5.29-.658 10.253 2.156 10.938 7.684.772 6.24-2.387 12.998-8.042 12.512z"/></defs><g><g transform="translate(-1312 -3920)"><use fill="#676767" xlink:href="#b037a"/></g></g></svg>