<svg xmlns="http://www.w3.org/2000/svg" xmlns:xlink="http://www.w3.org/1999/xlink" width="18" height="27" viewBox="0 0 18 27"><defs><path id="yq7sa" d="M1253 819.425v12.162c0 .35-.199.67-.51.821l-6.27 3.07a5.007 5.007 0 0 1-4.44 0l-6.27-3.07a.913.913 0 0 1-.51-.82v-12.163c0-.503.403-.912.9-.912h1.8v-3.132c0-3.526 2.82-6.385 6.3-6.385s6.3 2.86 6.3 6.385v3.132h1.8c.497 0 .9.409.9.912zm-13.5-.912h9v-3.132c0-2.519-2.015-4.56-4.5-4.56s-4.5 2.041-4.5 4.56zm11.7 1.825h-14.4v10.672l5.79 2.827c.9.442 1.95.442 2.85 0l5.76-2.827zm-8.1 7.6v-2.432c0-.504.403-.912.9-.912s.9.408.9.912v2.433a.906.906 0 0 1-.9.912.906.906 0 0 1-.9-.912z"/></defs><g><g transform="translate(-1235 -809)"><use fill="#676767" xlink:href="#yq7sa"/></g></g></svg>